M48
; DRILL file {KiCad (5.1.8)-1} date 02/23/24 19:10:11
; FORMAT={-:-/ absolute / metric / decimal}
; #@! TF.CreationDate,2024-02-23T19:10:11+03:00
; #@! TF.GenerationSoftware,Kicad,Pcbnew,(5.1.8)-1
; #@! TF.FileFunction,Plated,1,2,PTH
FMAT,2
METRIC
T1C0.650
T2C0.700
T3C0.750
T4C0.790
T5C0.800
T6C1.100
T7C2.500
T8C3.000
%
G90
G05
T1
X80.01Y-25.908
X27.94Y-34.036
X80.01Y-27.686
X27.686Y-21.082
T2
X64.262Y-28.702
X64.262Y-31.242
X52.324Y-17.78
X52.324Y-20.32
X72.136Y-23.368
X74.676Y-23.368
X73.914Y-35.56
X73.914Y-38.1
X66.548Y-28.194
X69.088Y-28.194
X69.596Y-23.368
X69.596Y-25.908
T3
X66.548Y-31.75
X67.818Y-31.75
X69.088Y-31.75
T4
X27.371Y-24.628
X27.371Y-29.728
X35.621Y-24.628
X35.621Y-29.728
T5
X65.532Y-11.43
X70.532Y-11.43
X74.93Y-25.654
X74.93Y-28.154
X48.26Y-17.86
X48.26Y-22.86
X42.164Y-24.13
X42.164Y-26.63
X53.594Y-30.48
X53.594Y-33.02
X53.594Y-35.56
X53.594Y-38.1
X61.214Y-30.48
X61.214Y-33.02
X61.214Y-35.56
X61.214Y-38.1
X45.466Y-35.092
X45.466Y-37.592
X64.262Y-35.56
X64.262Y-38.1
X71.882Y-35.56
X71.882Y-38.1
X50.8Y-30.56
X50.8Y-35.56
X55.88Y-17.78
X55.88Y-20.32
X55.88Y-22.86
X55.88Y-25.4
X66.294Y-17.78
X66.294Y-20.32
X66.294Y-22.86
X66.294Y-25.4
T6
X52.07Y-23.114
X52.07Y-25.654
X70.104Y-17.78
X70.104Y-20.32
T7
X27.686Y-18.288
X27.686Y-37.338
T8
X22.606Y-18.288
X22.606Y-37.338
X38.608Y-18.288
X38.608Y-37.338
X78.232Y-18.288
X78.232Y-37.338
T0
M30
